<svg xmlns="http://www.w3.org/2000/svg" viewBox="0 0 640 480">
  <defs>
    <linearGradient id="bg" x1="0" y1="0" x2="0" y2="1"><stop offset="0" stop-color="#0b0d17"/><stop offset=".5" stop-color="#1e1446"/><stop offset="1" stop-color="#3b1d5e"/></linearGradient>
    <filter id="glow" x="-50%" y="-50%" width="200%" height="200%"><feGaussianBlur stdDeviation="8"/></filter>
  </defs>
  <rect width="640" height="480" fill="url(#bg)"/>
  <g fill="#fff" opacity=".7"><circle cx="60" cy="40" r="1.5"/><circle cx="140" cy="110" r="1"/><circle cx="560" cy="60" r="1.6"/><circle cx="600" cy="170" r="1"/><circle cx="90" cy="200" r="1"/><circle cx="500" cy="230" r="1.2"/><circle cx="420" cy="30" r="1"/></g>
  <g fill="#7c5cff" opacity=".22"><rect x="0" y="330" width="40" height="150"/><rect x="50" y="290" width="40" height="190"/><rect x="100" y="350" width="40" height="130"/><rect x="480" y="300" width="40" height="180"/><rect x="530" y="340" width="40" height="140"/><rect x="580" y="280" width="60" height="200"/></g>
  <rect x="0" y="456" width="640" height="24" fill="#161a2b"/><line x1="0" y1="456" x2="640" y2="456" stroke="#22d3ee" stroke-width="3"/>
  <g id="tower">
    <g><rect x="230" y="424" width="180" height="32" fill="#06b6d4"/><path d="M230 424 l14 -9 h180 l-14 9 Z" fill="#67e8f9"/><path d="M410 424 l14 -9 v32 l-14 9 Z" fill="#0e7490"/></g>
    <g><rect x="230" y="392" width="180" height="32" fill="#0ea5e9"/><path d="M230 392 l14 -9 h180 l-14 9 Z" fill="#7dd3fc"/><path d="M410 392 l14 -9 v32 l-14 9 Z" fill="#075985"/></g>
    <g><rect x="236" y="360" width="174" height="32" fill="#3b82f6"/><path d="M236 360 l14 -9 h174 l-14 9 Z" fill="#93c5fd"/><path d="M410 360 l14 -9 v32 l-14 9 Z" fill="#1e40af"/></g>
    <g><rect x="236" y="328" width="168" height="32" fill="#6366f1"/><path d="M236 328 l14 -9 h168 l-14 9 Z" fill="#a5b4fc"/><path d="M404 328 l14 -9 v32 l-14 9 Z" fill="#3730a3"/></g>
    <g><rect x="246" y="296" width="158" height="32" fill="#7c5cff"/><path d="M246 296 l14 -9 h158 l-14 9 Z" fill="#c4b5fd"/><path d="M404 296 l14 -9 v32 l-14 9 Z" fill="#4c1d95"/></g>
    <g><rect x="246" y="264" width="158" height="32" fill="#a855f7"/><path d="M246 264 l14 -9 h158 l-14 9 Z" fill="#d8b4fe"/><path d="M404 264 l14 -9 v32 l-14 9 Z" fill="#6b21a8"/></g>
    <g><rect x="246" y="232" width="150" height="32" fill="#c026d3"/><path d="M246 232 l14 -9 h150 l-14 9 Z" fill="#f0abfc"/><path d="M396 232 l14 -9 v32 l-14 9 Z" fill="#86198f"/></g>
    <g fill="#ffffff2e"><rect x="244" y="434" width="10" height="12"/><rect x="266" y="434" width="10" height="12"/><rect x="288" y="434" width="10" height="12"/><rect x="250" y="370" width="10" height="12"/><rect x="272" y="370" width="10" height="12"/><rect x="260" y="306" width="10" height="12"/><rect x="282" y="306" width="10" height="12"/><rect x="260" y="242" width="10" height="12"/><rect x="282" y="242" width="10" height="12"/></g>
  </g>
  <rect x="236" y="196" width="170" height="40" rx="2" fill="none" stroke="#fff" stroke-width="3" opacity=".6"/>
  <rect x="226" y="190" width="190" height="52" rx="4" fill="none" stroke="#fff" stroke-width="2" opacity=".25"/>
  <g transform="translate(300 160)"><rect x="0" y="0" width="150" height="32" fill="#ec4899"/><path d="M0 0 l14 -9 h150 l-14 9 Z" fill="#f9a8d4"/><path d="M150 0 l14 -9 v32 l-14 9 Z" fill="#9d174d"/></g>
  <g transform="translate(470 250) rotate(28)"><rect x="0" y="0" width="56" height="32" fill="#c026d3"/><path d="M0 0 l14 -9 h56 l-14 9 Z" fill="#f0abfc"/></g>
  <path d="M470 176 h40 M500 166 l12 10 l-12 10" stroke="#22d3ee" stroke-width="4" fill="none" stroke-linecap="round" stroke-linejoin="round"/>
  <text x="320" y="120" text-anchor="middle" font-family="system-ui,sans-serif" font-weight="900" font-size="30" fill="#fde047" filter="url(#glow)">PERFECT x4</text>
  <text x="320" y="120" text-anchor="middle" font-family="system-ui,sans-serif" font-weight="900" font-size="30" fill="#fde047">PERFECT x4</text>
  <text x="320" y="68" text-anchor="middle" font-family="system-ui,sans-serif" font-weight="900" font-size="50" fill="#fff">STACK <tspan fill="#f472b6">TOWER</tspan></text>
</svg>
